<svg xmlns="http://www.w3.org/2000/svg" width="40" height="40" viewBox="0 0 48 48">
  <defs>
    <linearGradient id="rouge" x1="0" x2="1" y2="1"><stop stop-color="#ffb5cf"/><stop offset=".36" stop-color="#fc3d8f"/><stop offset="1" stop-color="#a90c66"/></linearGradient>
    <linearGradient id="case" x1="0" x2="1" y2="1"><stop stop-color="#3d174e"/><stop offset=".55" stop-color="#170c34"/><stop offset="1" stop-color="#633077"/></linearGradient>
  </defs>
  <path d="M19 7 24 2c5 4 7 9 7 16v4H17v-6c0-3 1-6 2-9Z" fill="url(#rouge)" stroke="#fff1f8" stroke-width="1.6" stroke-linejoin="round"/>
  <path d="M20 9c1-2 3-4 4-5 2 3 3 6 3 9-2 2-5 3-9 3Z" fill="#ffd1dc" opacity=".85"/>
  <path d="M16 21h16l2 5H14Z" fill="#ffdca3" stroke="#fff4dc" stroke-width="1.2"/>
  <path d="M15 27h19v15H15Z" fill="url(#case)" stroke="#f6baf0" stroke-width="1.5"/>
  <path d="M19 29v10" stroke="#ff88ca" stroke-width="2" stroke-linecap="round" opacity=".8"/>
  <path d="M13 42h23v4H13Z" rx="2" fill="#ef9ed4" stroke="#fff4fa" stroke-width="1.3"/>
  <path d="m38 9 1 3 3 1-3 1-1 3-1-3-3-1 3-1Z" fill="#fff4b7"/>
</svg>
